<svg width="33" height="33" viewBox="0 0 33 33" fill="none" xmlns="http://www.w3.org/2000/svg">
<path d="M23.398 0H9.60197C4.45133 0 0.275925 4.1754 0.275925 9.32605V23.674C0.275925 28.8246 4.45133 33 9.60197 33H23.398C28.5487 33 32.724 28.8246 32.724 23.674V9.32605C32.7241 4.1754 28.5487 0 23.398 0ZM3.58695 9.32605C3.58695 6.00922 6.28515 3.31102 9.60197 3.31102H23.398C26.7148 3.31102 29.413 6.00922 29.413 9.32605V23.674C29.413 26.9908 26.7148 29.689 23.398 29.689H9.60197C6.28515 29.689 3.58695 26.9908 3.58695 23.674V9.32605Z" fill="#333333"/>
<path d="M16.5 24.9983C21.1859 24.9983 24.9983 21.186 24.9983 16.5001C24.9983 11.8141 21.1859 8.00159 16.5 8.00159C11.8141 8.00159 8.00179 11.8141 8.00179 16.5001C8.00179 21.186 11.8141 24.9983 16.5 24.9983ZM16.5 10.6504C19.7254 10.6504 22.3494 13.2746 22.3494 16.5001C22.3494 19.7255 19.7254 22.3497 16.5 22.3497C13.2746 22.3497 10.6506 19.7255 10.6506 16.5001C10.6506 13.2746 13.2746 10.6504 16.5 10.6504Z" fill="#333333"/>
<path d="M25.2467 9.65751C26.2982 9.65751 27.1506 8.80505 27.1506 7.7535C27.1506 6.70194 26.2982 5.84949 25.2467 5.84949C24.1953 5.84949 23.3429 6.70194 23.3429 7.7535C23.3429 8.80505 24.1953 9.65751 25.2467 9.65751Z" fill="#333333"/>
</svg>
