<svg width="41" height="33" viewBox="0 0 41 33" fill="none" xmlns="http://www.w3.org/2000/svg">
<path d="M40.9607 3.94554C40.9703 3.93164 40.9812 3.91968 40.99 3.90642C39.7876 4.43449 38.5106 4.81899 37.1811 5.05845C36.8567 5.11084 36.5309 5.15822 36.2005 5.18861C37.5605 4.37014 38.6539 3.17558 39.3654 1.75708C39.5549 1.39198 39.7352 1.02139 39.871 0.631557C39.8614 0.63657 39.8511 0.640937 39.8416 0.646758C39.8454 0.634146 39.8531 0.622828 39.8576 0.60957C38.2331 1.56386 36.4326 2.25751 34.5174 2.63069C32.9835 1.01201 30.7976 0 28.3787 0C23.7344 0 19.9691 3.73018 19.9691 8.33089C19.9691 8.92461 20.0387 9.50184 20.1578 10.0608C20.1666 10.1163 20.1718 10.1719 20.182 10.2281C14.0726 9.92304 8.56986 7.34927 4.51172 3.33985C3.93915 2.76893 3.39089 2.16955 2.87626 1.53718C2.87495 1.53977 2.87381 1.54219 2.87251 1.54478C2.86679 1.53783 2.85977 1.53152 2.8539 1.52457C2.12953 2.75486 1.71528 4.18614 1.71528 5.71265C1.71528 8.08253 2.72381 10.2134 4.32794 11.7312C4.66515 12.059 5.02293 12.3691 5.41759 12.6433C4.05324 12.5946 2.77049 12.2226 1.64689 11.6049C1.64623 11.6397 1.64623 11.6751 1.64623 11.7099C1.64623 15.0662 3.66477 17.9362 6.55246 19.2556C7.12112 19.5227 7.71344 19.7487 8.34722 19.8872C7.65419 20.0703 6.92803 20.1708 6.17689 20.1708C5.73881 20.1708 5.3128 20.1277 4.89398 20.0634C4.80291 20.045 4.70791 20.0369 4.61863 20.0128C4.62059 20.0172 4.62239 20.021 4.62369 20.0247C4.61422 20.0228 4.60394 20.0228 4.59431 20.021C5.53152 22.9195 8.0296 25.1262 11.1071 25.6751C11.5382 25.7571 11.9787 25.8071 12.4276 25.8229C9.55326 28.0468 5.93565 29.3731 2.00564 29.3731C1.43829 29.3731 0.881059 29.3296 0.32758 29.276C0.222956 29.2601 0.116374 29.2545 0.0138723 29.2349C0.0279092 29.2438 0.0426004 29.2514 0.0566373 29.2601C0.0381935 29.2583 0.0184438 29.259 0 29.257C3.72092 31.6206 8.14173 33 12.8906 33C20.4598 33 26.3455 29.9562 30.3881 25.5623C30.4225 25.5245 30.4583 25.4876 30.4934 25.4493C30.9288 24.9699 31.3402 24.4741 31.7316 23.9656C31.8253 23.8443 31.9202 23.7244 32.0113 23.6012C32.3422 23.1534 32.6534 22.6949 32.9511 22.2287C33.0703 22.0418 33.1909 21.8573 33.3043 21.6678C33.5697 21.2277 33.8152 20.7785 34.0503 20.3257C34.1586 20.1172 34.2677 19.9108 34.3699 19.6991C34.605 19.2136 34.8187 18.7209 35.0201 18.225C35.0877 18.0583 35.1579 17.894 35.2215 17.726C35.4517 17.1234 35.6539 16.5138 35.8349 15.9018C35.8489 15.8532 35.8656 15.8045 35.879 15.756C36.4994 13.6084 36.8175 11.4213 36.8175 9.29666C36.8175 8.93544 36.8098 8.57649 36.7932 8.219C38.0971 7.2867 39.2562 6.16522 40.2458 4.90954C40.5053 4.58923 40.7615 4.2665 41 3.92986C40.9874 3.93552 40.9742 3.93988 40.9607 3.94554Z" fill="#333333"/>
</svg>
